# xmcd
#
# Track frame offsets:
#	150
#	12512
#	26115
#	40470
#	52970
#	66722
#	84385
#	102830
#	115695
#	127810
#	139022
#	150922
#	171707
#	189125
#
# Disc length: 2730
#
# Revision: 5
# Processed by: cddbd v1.5.1PL0 Copyright (c) Steve Scherf et al.
# Submitted via: audiograbber 1.83.01
# Normalized: r4:DSETVAR1
#
DISCID=b70aa80e
DTITLE=Various Artist - Mr Music Country 1994-09
DYEAR=1994
DGENRE=Country
TTITLE0=Tim McGraw - Give it to me strait
TTITLE1=Jann Browne - Troubles here
TTITLE2=Rick Vincent - Ain't been a train through here in years
TTITLE3=Christine Albert - The Souvernir
TTITLE4=Simon Richmond - Voulez Vous Danser
TTITLE5=Wynonna Judd - I just drove by
TTITLE6=Jackson Claypool - U.S.Male
TTITLE7=Merle Haggard - Bye bye, travellin' blues
TTITLE8=Joan Kennedy - Appalachian Gold
TTITLE9=Vern Gosdin - Don't ever leave me again
TTITLE10=Tommy Cash and George Jones - Hank and George, Left and Me
TTITLE11=Kimber Clayton - If wishes was horses
TTITLE12=Hal Ketchum - Another day gone
TTITLE13=Benny Wilson - Honky Tonk Holler
EXTD=
EXTT0=
EXTT1=
EXTT2=
EXTT3=
EXTT4=
EXTT5=
EXTT6=
EXTT7=
EXTT8=
EXTT9=
EXTT10=
EXTT11=
EXTT12=
EXTT13=
PLAYORDER=
